<mxfile host="app.diagrams.net" modified="2023-05-30T07:46:52.338Z" agent="Mozilla/5.0 (Windows NT 10.0; Win64; x64) AppleWebKit/537.36 (KHTML, like Gecko) Chrome/113.0.0.0 Safari/537.36" etag="z8EITHOhe7fza5ncbXmy" version="21.3.2" type="github">
  <diagram name="第 1 页" id="D8T1NSbYojLoOoO-aVT2">
    <mxGraphModel dx="1932" dy="511" grid="1" gridSize="10" guides="1" tooltips="1" connect="1" arrows="1" fold="1" page="1" pageScale="1" pageWidth="827" pageHeight="1169" math="0" shadow="0">
      <root>
        <mxCell id="0" />
        <mxCell id="1" parent="0" />
        <mxCell id="19CoJULS_3s1aGb-RFfC-10" value="&lt;font style=&quot;font-size: 18px;&quot;&gt;Rectified Image&lt;/font&gt;" style="text;html=1;strokeColor=none;fillColor=none;align=center;verticalAlign=middle;whiteSpace=wrap;rounded=0;" parent="1" vertex="1">
          <mxGeometry x="260" y="480" width="80" height="40" as="geometry" />
        </mxCell>
        <mxCell id="19CoJULS_3s1aGb-RFfC-12" value="&lt;font style=&quot;font-size: 24px;&quot;&gt;...&lt;/font&gt;" style="text;html=1;strokeColor=none;fillColor=none;align=center;verticalAlign=middle;whiteSpace=wrap;rounded=0;" parent="1" vertex="1">
          <mxGeometry x="270" y="645" width="60" height="30" as="geometry" />
        </mxCell>
        <mxCell id="19CoJULS_3s1aGb-RFfC-13" value="&lt;font style=&quot;font-size: 14px;&quot;&gt;32x100&lt;/font&gt;" style="text;html=1;strokeColor=none;fillColor=none;align=center;verticalAlign=middle;whiteSpace=wrap;rounded=0;" parent="1" vertex="1">
          <mxGeometry x="610" y="645" width="60" height="30" as="geometry" />
        </mxCell>
        <mxCell id="19CoJULS_3s1aGb-RFfC-14" value="&lt;span style=&quot;font-size: 18px;&quot;&gt;layer0&lt;/span&gt;" style="text;html=1;strokeColor=none;fillColor=none;align=center;verticalAlign=middle;whiteSpace=wrap;rounded=0;" parent="1" vertex="1">
          <mxGeometry x="660" y="585" width="80" height="40" as="geometry" />
        </mxCell>
        <mxCell id="19CoJULS_3s1aGb-RFfC-32" value="" style="endArrow=none;html=1;rounded=0;entryX=0.5;entryY=1;entryDx=0;entryDy=0;exitX=0.5;exitY=0;exitDx=0;exitDy=0;" parent="1" source="19CoJULS_3s1aGb-RFfC-192" target="19CoJULS_3s1aGb-RFfC-189" edge="1">
          <mxGeometry width="50" height="50" relative="1" as="geometry">
            <mxPoint x="200" y="340" as="sourcePoint" />
            <mxPoint x="260" y="340" as="targetPoint" />
          </mxGeometry>
        </mxCell>
        <mxCell id="19CoJULS_3s1aGb-RFfC-35" value="&lt;span style=&quot;font-size: 18px;&quot;&gt;layer1&lt;/span&gt;" style="text;html=1;strokeColor=none;fillColor=none;align=center;verticalAlign=middle;whiteSpace=wrap;rounded=0;" parent="1" vertex="1">
          <mxGeometry x="660" y="840" width="80" height="40" as="geometry" />
        </mxCell>
        <mxCell id="19CoJULS_3s1aGb-RFfC-64" value="" style="whiteSpace=wrap;html=1;aspect=fixed;" parent="1" vertex="1">
          <mxGeometry x="450" y="1075" width="30" height="30" as="geometry" />
        </mxCell>
        <mxCell id="19CoJULS_3s1aGb-RFfC-65" value="" style="whiteSpace=wrap;html=1;aspect=fixed;" parent="1" vertex="1">
          <mxGeometry x="365" y="1075" width="30" height="30" as="geometry" />
        </mxCell>
        <mxCell id="19CoJULS_3s1aGb-RFfC-66" value="" style="whiteSpace=wrap;html=1;aspect=fixed;" parent="1" vertex="1">
          <mxGeometry x="205" y="1075" width="30" height="30" as="geometry" />
        </mxCell>
        <mxCell id="19CoJULS_3s1aGb-RFfC-67" value="" style="whiteSpace=wrap;html=1;aspect=fixed;" parent="1" vertex="1">
          <mxGeometry x="125" y="1075" width="30" height="30" as="geometry" />
        </mxCell>
        <mxCell id="19CoJULS_3s1aGb-RFfC-69" value="&lt;font style=&quot;font-size: 14px;&quot;&gt;16x50&lt;/font&gt;" style="text;html=1;strokeColor=none;fillColor=none;align=center;verticalAlign=middle;whiteSpace=wrap;rounded=0;" parent="1" vertex="1">
          <mxGeometry x="600" y="1075" width="60" height="30" as="geometry" />
        </mxCell>
        <mxCell id="19CoJULS_3s1aGb-RFfC-96" value="&lt;font style=&quot;font-size: 24px;&quot;&gt;...&lt;/font&gt;" style="text;html=1;strokeColor=none;fillColor=none;align=center;verticalAlign=middle;whiteSpace=wrap;rounded=0;" parent="1" vertex="1">
          <mxGeometry x="270" y="1174" width="60" height="30" as="geometry" />
        </mxCell>
        <mxCell id="19CoJULS_3s1aGb-RFfC-97" value="&lt;font style=&quot;font-size: 14px;&quot;&gt;8x25&lt;/font&gt;" style="text;html=1;strokeColor=none;fillColor=none;align=center;verticalAlign=middle;whiteSpace=wrap;rounded=0;" parent="1" vertex="1">
          <mxGeometry x="600" y="1174" width="60" height="30" as="geometry" />
        </mxCell>
        <mxCell id="19CoJULS_3s1aGb-RFfC-121" value="" style="rounded=0;whiteSpace=wrap;html=1;" parent="1" vertex="1">
          <mxGeometry x="116.25" y="1174" width="47.5" height="30" as="geometry" />
        </mxCell>
        <mxCell id="19CoJULS_3s1aGb-RFfC-122" value="" style="rounded=0;whiteSpace=wrap;html=1;" parent="1" vertex="1">
          <mxGeometry x="200" y="1174" width="47.5" height="30" as="geometry" />
        </mxCell>
        <mxCell id="19CoJULS_3s1aGb-RFfC-123" value="" style="rounded=0;whiteSpace=wrap;html=1;" parent="1" vertex="1">
          <mxGeometry x="356.25" y="1174" width="47.5" height="30" as="geometry" />
        </mxCell>
        <mxCell id="19CoJULS_3s1aGb-RFfC-124" value="" style="rounded=0;whiteSpace=wrap;html=1;" parent="1" vertex="1">
          <mxGeometry x="445" y="1174" width="47.5" height="30" as="geometry" />
        </mxCell>
        <mxCell id="19CoJULS_3s1aGb-RFfC-126" value="&lt;font style=&quot;font-size: 14px;&quot;&gt;32&lt;/font&gt;" style="text;html=1;strokeColor=none;fillColor=none;align=center;verticalAlign=middle;whiteSpace=wrap;rounded=0;" parent="1" vertex="1">
          <mxGeometry y="645" width="85" height="40" as="geometry" />
        </mxCell>
        <mxCell id="19CoJULS_3s1aGb-RFfC-128" value="&lt;font style=&quot;font-size: 14px;&quot;&gt;64&lt;/font&gt;" style="text;html=1;strokeColor=none;fillColor=none;align=center;verticalAlign=middle;whiteSpace=wrap;rounded=0;" parent="1" vertex="1">
          <mxGeometry y="1169" width="85" height="40" as="geometry" />
        </mxCell>
        <mxCell id="19CoJULS_3s1aGb-RFfC-130" value="&lt;font style=&quot;font-size: 24px;&quot;&gt;...&lt;/font&gt;" style="text;html=1;strokeColor=none;fillColor=none;align=center;verticalAlign=middle;whiteSpace=wrap;rounded=0;" parent="1" vertex="1">
          <mxGeometry x="270" y="1264" width="60" height="30" as="geometry" />
        </mxCell>
        <mxCell id="19CoJULS_3s1aGb-RFfC-131" value="&lt;font style=&quot;font-size: 14px;&quot;&gt;4x25&lt;/font&gt;" style="text;html=1;strokeColor=none;fillColor=none;align=center;verticalAlign=middle;whiteSpace=wrap;rounded=0;" parent="1" vertex="1">
          <mxGeometry x="600" y="1269" width="60" height="30" as="geometry" />
        </mxCell>
        <mxCell id="19CoJULS_3s1aGb-RFfC-154" value="" style="rounded=0;whiteSpace=wrap;html=1;" parent="1" vertex="1">
          <mxGeometry x="443.13" y="1274" width="43.75" height="20" as="geometry" />
        </mxCell>
        <mxCell id="19CoJULS_3s1aGb-RFfC-158" value="" style="rounded=0;whiteSpace=wrap;html=1;" parent="1" vertex="1">
          <mxGeometry x="358.12" y="1274" width="43.75" height="20" as="geometry" />
        </mxCell>
        <mxCell id="19CoJULS_3s1aGb-RFfC-159" value="" style="rounded=0;whiteSpace=wrap;html=1;" parent="1" vertex="1">
          <mxGeometry x="205" y="1274" width="43.75" height="20" as="geometry" />
        </mxCell>
        <mxCell id="19CoJULS_3s1aGb-RFfC-160" value="" style="rounded=0;whiteSpace=wrap;html=1;" parent="1" vertex="1">
          <mxGeometry x="120" y="1274" width="43.75" height="20" as="geometry" />
        </mxCell>
        <mxCell id="19CoJULS_3s1aGb-RFfC-189" value="" style="whiteSpace=wrap;html=1;aspect=fixed;" parent="1" vertex="1">
          <mxGeometry x="200" y="560" width="40" height="40" as="geometry" />
        </mxCell>
        <mxCell id="19CoJULS_3s1aGb-RFfC-190" value="" style="whiteSpace=wrap;html=1;aspect=fixed;" parent="1" vertex="1">
          <mxGeometry x="280" y="560" width="40" height="40" as="geometry" />
        </mxCell>
        <mxCell id="19CoJULS_3s1aGb-RFfC-191" value="" style="whiteSpace=wrap;html=1;aspect=fixed;" parent="1" vertex="1">
          <mxGeometry x="360" y="560" width="40" height="40" as="geometry" />
        </mxCell>
        <mxCell id="19CoJULS_3s1aGb-RFfC-192" value="" style="whiteSpace=wrap;html=1;aspect=fixed;" parent="1" vertex="1">
          <mxGeometry x="120" y="640" width="40" height="40" as="geometry" />
        </mxCell>
        <mxCell id="19CoJULS_3s1aGb-RFfC-193" value="" style="whiteSpace=wrap;html=1;aspect=fixed;" parent="1" vertex="1">
          <mxGeometry x="200" y="640" width="40" height="40" as="geometry" />
        </mxCell>
        <mxCell id="19CoJULS_3s1aGb-RFfC-194" value="" style="whiteSpace=wrap;html=1;aspect=fixed;" parent="1" vertex="1">
          <mxGeometry x="360" y="640" width="40" height="40" as="geometry" />
        </mxCell>
        <mxCell id="19CoJULS_3s1aGb-RFfC-195" value="" style="whiteSpace=wrap;html=1;aspect=fixed;" parent="1" vertex="1">
          <mxGeometry x="440" y="640" width="40" height="40" as="geometry" />
        </mxCell>
        <mxCell id="19CoJULS_3s1aGb-RFfC-196" value="" style="endArrow=none;html=1;rounded=0;entryX=0.5;entryY=1;entryDx=0;entryDy=0;exitX=0.5;exitY=0;exitDx=0;exitDy=0;" parent="1" edge="1">
          <mxGeometry width="50" height="50" relative="1" as="geometry">
            <mxPoint x="220" y="640" as="sourcePoint" />
            <mxPoint x="300" y="600" as="targetPoint" />
          </mxGeometry>
        </mxCell>
        <mxCell id="19CoJULS_3s1aGb-RFfC-197" value="" style="endArrow=none;html=1;rounded=0;exitX=0.5;exitY=0;exitDx=0;exitDy=0;" parent="1" source="19CoJULS_3s1aGb-RFfC-194" edge="1">
          <mxGeometry width="50" height="50" relative="1" as="geometry">
            <mxPoint x="230" y="650" as="sourcePoint" />
            <mxPoint x="300" y="600" as="targetPoint" />
          </mxGeometry>
        </mxCell>
        <mxCell id="19CoJULS_3s1aGb-RFfC-198" value="" style="endArrow=none;html=1;rounded=0;exitX=0.5;exitY=0;exitDx=0;exitDy=0;" parent="1" edge="1">
          <mxGeometry width="50" height="50" relative="1" as="geometry">
            <mxPoint x="460" y="640" as="sourcePoint" />
            <mxPoint x="380" y="600" as="targetPoint" />
          </mxGeometry>
        </mxCell>
        <mxCell id="19CoJULS_3s1aGb-RFfC-199" value="" style="endArrow=none;html=1;rounded=0;exitX=0.5;exitY=0;exitDx=0;exitDy=0;entryX=0.5;entryY=1;entryDx=0;entryDy=0;" parent="1" source="19CoJULS_3s1aGb-RFfC-195" target="19CoJULS_3s1aGb-RFfC-190" edge="1">
          <mxGeometry width="50" height="50" relative="1" as="geometry">
            <mxPoint x="470" y="650" as="sourcePoint" />
            <mxPoint x="390" y="610" as="targetPoint" />
          </mxGeometry>
        </mxCell>
        <mxCell id="19CoJULS_3s1aGb-RFfC-200" value="" style="endArrow=none;html=1;rounded=0;entryX=0.5;entryY=1;entryDx=0;entryDy=0;" parent="1" target="19CoJULS_3s1aGb-RFfC-189" edge="1">
          <mxGeometry width="50" height="50" relative="1" as="geometry">
            <mxPoint x="460" y="640" as="sourcePoint" />
            <mxPoint x="310" y="610" as="targetPoint" />
          </mxGeometry>
        </mxCell>
        <mxCell id="19CoJULS_3s1aGb-RFfC-201" value="" style="endArrow=none;html=1;rounded=0;exitX=0.5;exitY=0;exitDx=0;exitDy=0;exitPerimeter=0;" parent="1" source="19CoJULS_3s1aGb-RFfC-192" edge="1">
          <mxGeometry width="50" height="50" relative="1" as="geometry">
            <mxPoint x="150" y="650" as="sourcePoint" />
            <mxPoint x="300" y="600" as="targetPoint" />
          </mxGeometry>
        </mxCell>
        <mxCell id="19CoJULS_3s1aGb-RFfC-202" value="" style="endArrow=none;html=1;rounded=0;entryX=0.5;entryY=1;entryDx=0;entryDy=0;" parent="1" target="19CoJULS_3s1aGb-RFfC-191" edge="1">
          <mxGeometry width="50" height="50" relative="1" as="geometry">
            <mxPoint x="140" y="640" as="sourcePoint" />
            <mxPoint x="310" y="610" as="targetPoint" />
          </mxGeometry>
        </mxCell>
        <mxCell id="19CoJULS_3s1aGb-RFfC-203" value="" style="endArrow=none;html=1;rounded=0;entryX=0.5;entryY=0;entryDx=0;entryDy=0;" parent="1" target="19CoJULS_3s1aGb-RFfC-193" edge="1">
          <mxGeometry width="50" height="50" relative="1" as="geometry">
            <mxPoint x="380" y="600" as="sourcePoint" />
            <mxPoint x="390" y="610" as="targetPoint" />
          </mxGeometry>
        </mxCell>
        <mxCell id="19CoJULS_3s1aGb-RFfC-204" value="" style="endArrow=none;html=1;rounded=0;" parent="1" edge="1">
          <mxGeometry width="50" height="50" relative="1" as="geometry">
            <mxPoint x="380" y="640" as="sourcePoint" />
            <mxPoint x="380" y="600" as="targetPoint" />
          </mxGeometry>
        </mxCell>
        <mxCell id="19CoJULS_3s1aGb-RFfC-205" value="" style="endArrow=none;html=1;rounded=0;entryX=0.5;entryY=1;entryDx=0;entryDy=0;exitX=0.5;exitY=0;exitDx=0;exitDy=0;" parent="1" source="19CoJULS_3s1aGb-RFfC-194" target="19CoJULS_3s1aGb-RFfC-189" edge="1">
          <mxGeometry width="50" height="50" relative="1" as="geometry">
            <mxPoint x="470" y="650" as="sourcePoint" />
            <mxPoint x="230" y="610" as="targetPoint" />
          </mxGeometry>
        </mxCell>
        <mxCell id="19CoJULS_3s1aGb-RFfC-206" value="" style="endArrow=none;html=1;rounded=0;entryX=0.5;entryY=1;entryDx=0;entryDy=0;exitX=0.5;exitY=0;exitDx=0;exitDy=0;" parent="1" source="19CoJULS_3s1aGb-RFfC-193" target="19CoJULS_3s1aGb-RFfC-189" edge="1">
          <mxGeometry width="50" height="50" relative="1" as="geometry">
            <mxPoint x="150" y="650" as="sourcePoint" />
            <mxPoint x="230" y="610" as="targetPoint" />
          </mxGeometry>
        </mxCell>
        <mxCell id="_zy6mxmBzzGPkQvw4hf9-5" style="edgeStyle=orthogonalEdgeStyle;rounded=0;orthogonalLoop=1;jettySize=auto;html=1;exitX=1;exitY=0.5;exitDx=0;exitDy=0;entryX=0;entryY=0.5;entryDx=0;entryDy=0;" edge="1" parent="1" source="19CoJULS_3s1aGb-RFfC-207" target="19CoJULS_3s1aGb-RFfC-228">
          <mxGeometry relative="1" as="geometry" />
        </mxCell>
        <mxCell id="19CoJULS_3s1aGb-RFfC-207" value="" style="swimlane;startSize=0;" parent="1" vertex="1">
          <mxGeometry x="290" y="700" width="150" height="360" as="geometry" />
        </mxCell>
        <mxCell id="19CoJULS_3s1aGb-RFfC-208" style="edgeStyle=orthogonalEdgeStyle;rounded=0;orthogonalLoop=1;jettySize=auto;html=1;exitX=0.5;exitY=1;exitDx=0;exitDy=0;entryX=0.5;entryY=0;entryDx=0;entryDy=0;" parent="19CoJULS_3s1aGb-RFfC-207" source="19CoJULS_3s1aGb-RFfC-209" target="19CoJULS_3s1aGb-RFfC-211" edge="1">
          <mxGeometry relative="1" as="geometry" />
        </mxCell>
        <mxCell id="19CoJULS_3s1aGb-RFfC-209" value="&lt;font style=&quot;font-size: 14px;&quot;&gt;conv1&lt;/font&gt;" style="rounded=0;whiteSpace=wrap;html=1;" parent="19CoJULS_3s1aGb-RFfC-207" vertex="1">
          <mxGeometry x="21.25" y="50" width="107.5" height="30" as="geometry" />
        </mxCell>
        <mxCell id="19CoJULS_3s1aGb-RFfC-210" style="edgeStyle=orthogonalEdgeStyle;rounded=0;orthogonalLoop=1;jettySize=auto;html=1;exitX=0.5;exitY=1;exitDx=0;exitDy=0;entryX=0.5;entryY=0;entryDx=0;entryDy=0;" parent="19CoJULS_3s1aGb-RFfC-207" source="19CoJULS_3s1aGb-RFfC-211" target="19CoJULS_3s1aGb-RFfC-213" edge="1">
          <mxGeometry relative="1" as="geometry" />
        </mxCell>
        <mxCell id="19CoJULS_3s1aGb-RFfC-211" value="&lt;span style=&quot;font-size: 14px;&quot;&gt;bn1&lt;/span&gt;" style="rounded=0;whiteSpace=wrap;html=1;" parent="19CoJULS_3s1aGb-RFfC-207" vertex="1">
          <mxGeometry x="21.25" y="100" width="107.5" height="30" as="geometry" />
        </mxCell>
        <mxCell id="19CoJULS_3s1aGb-RFfC-212" style="edgeStyle=orthogonalEdgeStyle;rounded=0;orthogonalLoop=1;jettySize=auto;html=1;exitX=0.5;exitY=1;exitDx=0;exitDy=0;entryX=0.5;entryY=0;entryDx=0;entryDy=0;" parent="19CoJULS_3s1aGb-RFfC-207" source="19CoJULS_3s1aGb-RFfC-213" target="19CoJULS_3s1aGb-RFfC-215" edge="1">
          <mxGeometry relative="1" as="geometry" />
        </mxCell>
        <mxCell id="19CoJULS_3s1aGb-RFfC-213" value="&lt;span style=&quot;font-size: 14px;&quot;&gt;relu&lt;/span&gt;" style="rounded=0;whiteSpace=wrap;html=1;" parent="19CoJULS_3s1aGb-RFfC-207" vertex="1">
          <mxGeometry x="21.25" y="150" width="107.5" height="30" as="geometry" />
        </mxCell>
        <mxCell id="19CoJULS_3s1aGb-RFfC-214" style="edgeStyle=orthogonalEdgeStyle;rounded=0;orthogonalLoop=1;jettySize=auto;html=1;exitX=0.5;exitY=1;exitDx=0;exitDy=0;entryX=0.5;entryY=0;entryDx=0;entryDy=0;" parent="19CoJULS_3s1aGb-RFfC-207" source="19CoJULS_3s1aGb-RFfC-215" target="19CoJULS_3s1aGb-RFfC-217" edge="1">
          <mxGeometry relative="1" as="geometry" />
        </mxCell>
        <mxCell id="19CoJULS_3s1aGb-RFfC-215" value="&lt;span style=&quot;font-size: 14px;&quot;&gt;conv2&lt;/span&gt;" style="rounded=0;whiteSpace=wrap;html=1;" parent="19CoJULS_3s1aGb-RFfC-207" vertex="1">
          <mxGeometry x="21.25" y="200" width="107.5" height="30" as="geometry" />
        </mxCell>
        <mxCell id="19CoJULS_3s1aGb-RFfC-216" style="edgeStyle=orthogonalEdgeStyle;rounded=0;orthogonalLoop=1;jettySize=auto;html=1;exitX=0.5;exitY=1;exitDx=0;exitDy=0;" parent="19CoJULS_3s1aGb-RFfC-207" source="19CoJULS_3s1aGb-RFfC-217" edge="1">
          <mxGeometry relative="1" as="geometry">
            <mxPoint x="75" y="300" as="targetPoint" />
          </mxGeometry>
        </mxCell>
        <mxCell id="19CoJULS_3s1aGb-RFfC-217" value="&lt;span style=&quot;font-size: 14px;&quot;&gt;bn2&lt;/span&gt;" style="rounded=0;whiteSpace=wrap;html=1;" parent="19CoJULS_3s1aGb-RFfC-207" vertex="1">
          <mxGeometry x="21.25" y="250" width="107.5" height="30" as="geometry" />
        </mxCell>
        <mxCell id="19CoJULS_3s1aGb-RFfC-218" style="edgeStyle=orthogonalEdgeStyle;rounded=0;orthogonalLoop=1;jettySize=auto;html=1;exitX=0.5;exitY=1;exitDx=0;exitDy=0;" parent="19CoJULS_3s1aGb-RFfC-207" source="19CoJULS_3s1aGb-RFfC-219" edge="1">
          <mxGeometry relative="1" as="geometry">
            <mxPoint x="74.75862068965523" y="320.1034482758621" as="targetPoint" />
          </mxGeometry>
        </mxCell>
        <mxCell id="19CoJULS_3s1aGb-RFfC-219" value="" style="ellipse;whiteSpace=wrap;html=1;aspect=fixed;" parent="19CoJULS_3s1aGb-RFfC-207" vertex="1">
          <mxGeometry x="65" y="300" width="20" height="20" as="geometry" />
        </mxCell>
        <mxCell id="19CoJULS_3s1aGb-RFfC-220" value="" style="endArrow=none;html=1;rounded=0;entryX=1;entryY=0.5;entryDx=0;entryDy=0;exitX=0;exitY=0.5;exitDx=0;exitDy=0;" parent="19CoJULS_3s1aGb-RFfC-207" source="19CoJULS_3s1aGb-RFfC-219" target="19CoJULS_3s1aGb-RFfC-219" edge="1">
          <mxGeometry width="50" height="50" relative="1" as="geometry">
            <mxPoint x="150" y="240" as="sourcePoint" />
            <mxPoint x="200" y="190" as="targetPoint" />
          </mxGeometry>
        </mxCell>
        <mxCell id="19CoJULS_3s1aGb-RFfC-221" value="" style="endArrow=none;html=1;rounded=0;entryX=0.5;entryY=1;entryDx=0;entryDy=0;exitX=0.5;exitY=0;exitDx=0;exitDy=0;" parent="19CoJULS_3s1aGb-RFfC-207" source="19CoJULS_3s1aGb-RFfC-219" target="19CoJULS_3s1aGb-RFfC-219" edge="1">
          <mxGeometry width="50" height="50" relative="1" as="geometry">
            <mxPoint x="150" y="240" as="sourcePoint" />
            <mxPoint x="200" y="190" as="targetPoint" />
          </mxGeometry>
        </mxCell>
        <mxCell id="19CoJULS_3s1aGb-RFfC-222" style="edgeStyle=orthogonalEdgeStyle;rounded=0;orthogonalLoop=1;jettySize=auto;html=1;exitX=0.5;exitY=1;exitDx=0;exitDy=0;entryX=0.5;entryY=0;entryDx=0;entryDy=0;" parent="19CoJULS_3s1aGb-RFfC-207" source="19CoJULS_3s1aGb-RFfC-224" target="19CoJULS_3s1aGb-RFfC-209" edge="1">
          <mxGeometry relative="1" as="geometry" />
        </mxCell>
        <mxCell id="19CoJULS_3s1aGb-RFfC-223" style="edgeStyle=orthogonalEdgeStyle;rounded=0;orthogonalLoop=1;jettySize=auto;html=1;exitX=1;exitY=0.5;exitDx=0;exitDy=0;entryX=1;entryY=0.5;entryDx=0;entryDy=0;" parent="19CoJULS_3s1aGb-RFfC-207" source="19CoJULS_3s1aGb-RFfC-224" target="19CoJULS_3s1aGb-RFfC-219" edge="1">
          <mxGeometry relative="1" as="geometry">
            <Array as="points">
              <mxPoint x="140" y="15" />
              <mxPoint x="140" y="310" />
            </Array>
          </mxGeometry>
        </mxCell>
        <mxCell id="19CoJULS_3s1aGb-RFfC-224" value="&lt;font style=&quot;font-size: 14px;&quot;&gt;x&lt;/font&gt;" style="text;html=1;strokeColor=none;fillColor=none;align=center;verticalAlign=middle;whiteSpace=wrap;rounded=0;" parent="19CoJULS_3s1aGb-RFfC-207" vertex="1">
          <mxGeometry x="45" width="60" height="30" as="geometry" />
        </mxCell>
        <mxCell id="19CoJULS_3s1aGb-RFfC-225" value="&lt;font style=&quot;font-size: 14px;&quot;&gt;relu&lt;/font&gt;" style="text;html=1;strokeColor=none;fillColor=none;align=center;verticalAlign=middle;whiteSpace=wrap;rounded=0;" parent="19CoJULS_3s1aGb-RFfC-207" vertex="1">
          <mxGeometry x="80" y="325" width="60" height="30" as="geometry" />
        </mxCell>
        <mxCell id="19CoJULS_3s1aGb-RFfC-226" value="" style="edgeStyle=orthogonalEdgeStyle;rounded=0;orthogonalLoop=1;jettySize=auto;html=1;" parent="1" source="19CoJULS_3s1aGb-RFfC-219" edge="1">
          <mxGeometry relative="1" as="geometry">
            <mxPoint x="365" y="1040" as="targetPoint" />
            <Array as="points">
              <mxPoint x="365" y="1040" />
            </Array>
          </mxGeometry>
        </mxCell>
        <mxCell id="19CoJULS_3s1aGb-RFfC-228" value="" style="swimlane;startSize=0;" parent="1" vertex="1">
          <mxGeometry x="480" y="700" width="150" height="360" as="geometry" />
        </mxCell>
        <mxCell id="19CoJULS_3s1aGb-RFfC-229" style="edgeStyle=orthogonalEdgeStyle;rounded=0;orthogonalLoop=1;jettySize=auto;html=1;exitX=0.5;exitY=1;exitDx=0;exitDy=0;entryX=0.5;entryY=0;entryDx=0;entryDy=0;" parent="19CoJULS_3s1aGb-RFfC-228" source="19CoJULS_3s1aGb-RFfC-230" target="19CoJULS_3s1aGb-RFfC-232" edge="1">
          <mxGeometry relative="1" as="geometry" />
        </mxCell>
        <mxCell id="19CoJULS_3s1aGb-RFfC-230" value="&lt;font style=&quot;font-size: 14px;&quot;&gt;conv1&lt;/font&gt;" style="rounded=0;whiteSpace=wrap;html=1;" parent="19CoJULS_3s1aGb-RFfC-228" vertex="1">
          <mxGeometry x="21.25" y="50" width="107.5" height="30" as="geometry" />
        </mxCell>
        <mxCell id="19CoJULS_3s1aGb-RFfC-231" style="edgeStyle=orthogonalEdgeStyle;rounded=0;orthogonalLoop=1;jettySize=auto;html=1;exitX=0.5;exitY=1;exitDx=0;exitDy=0;entryX=0.5;entryY=0;entryDx=0;entryDy=0;" parent="19CoJULS_3s1aGb-RFfC-228" source="19CoJULS_3s1aGb-RFfC-232" target="19CoJULS_3s1aGb-RFfC-234" edge="1">
          <mxGeometry relative="1" as="geometry" />
        </mxCell>
        <mxCell id="19CoJULS_3s1aGb-RFfC-232" value="&lt;span style=&quot;font-size: 14px;&quot;&gt;bn1&lt;/span&gt;" style="rounded=0;whiteSpace=wrap;html=1;" parent="19CoJULS_3s1aGb-RFfC-228" vertex="1">
          <mxGeometry x="21.25" y="100" width="107.5" height="30" as="geometry" />
        </mxCell>
        <mxCell id="19CoJULS_3s1aGb-RFfC-233" style="edgeStyle=orthogonalEdgeStyle;rounded=0;orthogonalLoop=1;jettySize=auto;html=1;exitX=0.5;exitY=1;exitDx=0;exitDy=0;entryX=0.5;entryY=0;entryDx=0;entryDy=0;" parent="19CoJULS_3s1aGb-RFfC-228" source="19CoJULS_3s1aGb-RFfC-234" target="19CoJULS_3s1aGb-RFfC-236" edge="1">
          <mxGeometry relative="1" as="geometry" />
        </mxCell>
        <mxCell id="19CoJULS_3s1aGb-RFfC-234" value="&lt;span style=&quot;font-size: 14px;&quot;&gt;relu&lt;/span&gt;" style="rounded=0;whiteSpace=wrap;html=1;" parent="19CoJULS_3s1aGb-RFfC-228" vertex="1">
          <mxGeometry x="21.25" y="150" width="107.5" height="30" as="geometry" />
        </mxCell>
        <mxCell id="19CoJULS_3s1aGb-RFfC-235" style="edgeStyle=orthogonalEdgeStyle;rounded=0;orthogonalLoop=1;jettySize=auto;html=1;exitX=0.5;exitY=1;exitDx=0;exitDy=0;entryX=0.5;entryY=0;entryDx=0;entryDy=0;" parent="19CoJULS_3s1aGb-RFfC-228" source="19CoJULS_3s1aGb-RFfC-236" target="19CoJULS_3s1aGb-RFfC-238" edge="1">
          <mxGeometry relative="1" as="geometry" />
        </mxCell>
        <mxCell id="19CoJULS_3s1aGb-RFfC-236" value="&lt;span style=&quot;font-size: 14px;&quot;&gt;conv2&lt;/span&gt;" style="rounded=0;whiteSpace=wrap;html=1;" parent="19CoJULS_3s1aGb-RFfC-228" vertex="1">
          <mxGeometry x="21.25" y="200" width="107.5" height="30" as="geometry" />
        </mxCell>
        <mxCell id="19CoJULS_3s1aGb-RFfC-237" style="edgeStyle=orthogonalEdgeStyle;rounded=0;orthogonalLoop=1;jettySize=auto;html=1;exitX=0.5;exitY=1;exitDx=0;exitDy=0;" parent="19CoJULS_3s1aGb-RFfC-228" source="19CoJULS_3s1aGb-RFfC-238" edge="1">
          <mxGeometry relative="1" as="geometry">
            <mxPoint x="75" y="300" as="targetPoint" />
          </mxGeometry>
        </mxCell>
        <mxCell id="19CoJULS_3s1aGb-RFfC-238" value="&lt;span style=&quot;font-size: 14px;&quot;&gt;bn2&lt;/span&gt;" style="rounded=0;whiteSpace=wrap;html=1;" parent="19CoJULS_3s1aGb-RFfC-228" vertex="1">
          <mxGeometry x="21.25" y="250" width="107.5" height="30" as="geometry" />
        </mxCell>
        <mxCell id="19CoJULS_3s1aGb-RFfC-239" style="edgeStyle=orthogonalEdgeStyle;rounded=0;orthogonalLoop=1;jettySize=auto;html=1;exitX=0.5;exitY=1;exitDx=0;exitDy=0;" parent="19CoJULS_3s1aGb-RFfC-228" source="19CoJULS_3s1aGb-RFfC-240" edge="1">
          <mxGeometry relative="1" as="geometry">
            <mxPoint x="74.75862068965523" y="320.1034482758621" as="targetPoint" />
          </mxGeometry>
        </mxCell>
        <mxCell id="19CoJULS_3s1aGb-RFfC-240" value="" style="ellipse;whiteSpace=wrap;html=1;aspect=fixed;" parent="19CoJULS_3s1aGb-RFfC-228" vertex="1">
          <mxGeometry x="65" y="300" width="20" height="20" as="geometry" />
        </mxCell>
        <mxCell id="19CoJULS_3s1aGb-RFfC-241" value="" style="endArrow=none;html=1;rounded=0;entryX=1;entryY=0.5;entryDx=0;entryDy=0;exitX=0;exitY=0.5;exitDx=0;exitDy=0;" parent="19CoJULS_3s1aGb-RFfC-228" source="19CoJULS_3s1aGb-RFfC-240" target="19CoJULS_3s1aGb-RFfC-240" edge="1">
          <mxGeometry width="50" height="50" relative="1" as="geometry">
            <mxPoint x="150" y="240" as="sourcePoint" />
            <mxPoint x="200" y="190" as="targetPoint" />
          </mxGeometry>
        </mxCell>
        <mxCell id="19CoJULS_3s1aGb-RFfC-242" value="" style="endArrow=none;html=1;rounded=0;entryX=0.5;entryY=1;entryDx=0;entryDy=0;exitX=0.5;exitY=0;exitDx=0;exitDy=0;" parent="19CoJULS_3s1aGb-RFfC-228" source="19CoJULS_3s1aGb-RFfC-240" target="19CoJULS_3s1aGb-RFfC-240" edge="1">
          <mxGeometry width="50" height="50" relative="1" as="geometry">
            <mxPoint x="150" y="240" as="sourcePoint" />
            <mxPoint x="200" y="190" as="targetPoint" />
          </mxGeometry>
        </mxCell>
        <mxCell id="19CoJULS_3s1aGb-RFfC-243" style="edgeStyle=orthogonalEdgeStyle;rounded=0;orthogonalLoop=1;jettySize=auto;html=1;exitX=0.5;exitY=1;exitDx=0;exitDy=0;entryX=0.5;entryY=0;entryDx=0;entryDy=0;" parent="19CoJULS_3s1aGb-RFfC-228" source="19CoJULS_3s1aGb-RFfC-245" target="19CoJULS_3s1aGb-RFfC-230" edge="1">
          <mxGeometry relative="1" as="geometry" />
        </mxCell>
        <mxCell id="19CoJULS_3s1aGb-RFfC-244" style="edgeStyle=orthogonalEdgeStyle;rounded=0;orthogonalLoop=1;jettySize=auto;html=1;exitX=1;exitY=0.5;exitDx=0;exitDy=0;entryX=1;entryY=0.5;entryDx=0;entryDy=0;" parent="19CoJULS_3s1aGb-RFfC-228" source="19CoJULS_3s1aGb-RFfC-245" target="19CoJULS_3s1aGb-RFfC-240" edge="1">
          <mxGeometry relative="1" as="geometry">
            <Array as="points">
              <mxPoint x="140" y="15" />
              <mxPoint x="140" y="310" />
            </Array>
          </mxGeometry>
        </mxCell>
        <mxCell id="19CoJULS_3s1aGb-RFfC-245" value="&lt;font style=&quot;font-size: 14px;&quot;&gt;x&lt;/font&gt;" style="text;html=1;strokeColor=none;fillColor=none;align=center;verticalAlign=middle;whiteSpace=wrap;rounded=0;" parent="19CoJULS_3s1aGb-RFfC-228" vertex="1">
          <mxGeometry x="45" width="60" height="30" as="geometry" />
        </mxCell>
        <mxCell id="19CoJULS_3s1aGb-RFfC-246" value="&lt;font style=&quot;font-size: 14px;&quot;&gt;relu&lt;/font&gt;" style="text;html=1;strokeColor=none;fillColor=none;align=center;verticalAlign=middle;whiteSpace=wrap;rounded=0;" parent="19CoJULS_3s1aGb-RFfC-228" vertex="1">
          <mxGeometry x="80" y="325" width="60" height="30" as="geometry" />
        </mxCell>
        <mxCell id="19CoJULS_3s1aGb-RFfC-247" value="" style="edgeStyle=orthogonalEdgeStyle;rounded=0;orthogonalLoop=1;jettySize=auto;html=1;" parent="19CoJULS_3s1aGb-RFfC-228" source="19CoJULS_3s1aGb-RFfC-240" edge="1">
          <mxGeometry relative="1" as="geometry">
            <mxPoint x="75" y="340" as="targetPoint" />
            <Array as="points">
              <mxPoint x="75" y="340" />
            </Array>
          </mxGeometry>
        </mxCell>
        <mxCell id="19CoJULS_3s1aGb-RFfC-249" value="&lt;font style=&quot;font-size: 24px;&quot;&gt;...&lt;/font&gt;" style="text;html=1;strokeColor=none;fillColor=none;align=center;verticalAlign=middle;whiteSpace=wrap;rounded=0;" parent="1" vertex="1">
          <mxGeometry x="270" y="1075" width="60" height="30" as="geometry" />
        </mxCell>
        <mxCell id="19CoJULS_3s1aGb-RFfC-250" value="&lt;font style=&quot;font-size: 14px;&quot;&gt;32&lt;/font&gt;" style="text;html=1;strokeColor=none;fillColor=none;align=center;verticalAlign=middle;whiteSpace=wrap;rounded=0;" parent="1" vertex="1">
          <mxGeometry y="1070" width="85" height="40" as="geometry" />
        </mxCell>
        <mxCell id="19CoJULS_3s1aGb-RFfC-253" value="&lt;font style=&quot;font-size: 18px;&quot;&gt;4个block&lt;/font&gt;" style="rounded=0;whiteSpace=wrap;html=1;" parent="1" vertex="1">
          <mxGeometry x="70" y="1110" width="470" height="50" as="geometry" />
        </mxCell>
        <mxCell id="19CoJULS_3s1aGb-RFfC-254" value="&lt;font style=&quot;font-size: 18px;&quot;&gt;6个block&lt;/font&gt;" style="rounded=0;whiteSpace=wrap;html=1;" parent="1" vertex="1">
          <mxGeometry x="70" y="1214" width="470" height="50" as="geometry" />
        </mxCell>
        <mxCell id="19CoJULS_3s1aGb-RFfC-257" value="&lt;font style=&quot;font-size: 24px;&quot;&gt;...&lt;/font&gt;" style="text;html=1;strokeColor=none;fillColor=none;align=center;verticalAlign=middle;whiteSpace=wrap;rounded=0;" parent="1" vertex="1">
          <mxGeometry x="270" y="1360" width="60" height="30" as="geometry" />
        </mxCell>
        <mxCell id="19CoJULS_3s1aGb-RFfC-258" value="&lt;font style=&quot;font-size: 14px;&quot;&gt;2x25&lt;/font&gt;" style="text;html=1;strokeColor=none;fillColor=none;align=center;verticalAlign=middle;whiteSpace=wrap;rounded=0;" parent="1" vertex="1">
          <mxGeometry x="600" y="1360" width="60" height="30" as="geometry" />
        </mxCell>
        <mxCell id="19CoJULS_3s1aGb-RFfC-259" value="" style="rounded=0;whiteSpace=wrap;html=1;" parent="1" vertex="1">
          <mxGeometry x="443.13" y="1370" width="43.75" height="20" as="geometry" />
        </mxCell>
        <mxCell id="19CoJULS_3s1aGb-RFfC-260" value="" style="rounded=0;whiteSpace=wrap;html=1;" parent="1" vertex="1">
          <mxGeometry x="358.12" y="1370" width="43.75" height="20" as="geometry" />
        </mxCell>
        <mxCell id="19CoJULS_3s1aGb-RFfC-261" value="" style="rounded=0;whiteSpace=wrap;html=1;" parent="1" vertex="1">
          <mxGeometry x="205" y="1370" width="43.75" height="20" as="geometry" />
        </mxCell>
        <mxCell id="19CoJULS_3s1aGb-RFfC-262" value="" style="rounded=0;whiteSpace=wrap;html=1;" parent="1" vertex="1">
          <mxGeometry x="120" y="1370" width="43.75" height="20" as="geometry" />
        </mxCell>
        <mxCell id="19CoJULS_3s1aGb-RFfC-263" value="&lt;font style=&quot;font-size: 18px;&quot;&gt;6个block&lt;/font&gt;" style="rounded=0;whiteSpace=wrap;html=1;" parent="1" vertex="1">
          <mxGeometry x="70" y="1310" width="470" height="50" as="geometry" />
        </mxCell>
        <mxCell id="19CoJULS_3s1aGb-RFfC-264" value="&lt;font style=&quot;font-size: 24px;&quot;&gt;...&lt;/font&gt;" style="text;html=1;strokeColor=none;fillColor=none;align=center;verticalAlign=middle;whiteSpace=wrap;rounded=0;" parent="1" vertex="1">
          <mxGeometry x="270" y="1460" width="60" height="30" as="geometry" />
        </mxCell>
        <mxCell id="19CoJULS_3s1aGb-RFfC-265" value="&lt;font style=&quot;font-size: 14px;&quot;&gt;1x25&lt;/font&gt;" style="text;html=1;strokeColor=none;fillColor=none;align=center;verticalAlign=middle;whiteSpace=wrap;rounded=0;" parent="1" vertex="1">
          <mxGeometry x="600" y="1465" width="60" height="30" as="geometry" />
        </mxCell>
        <mxCell id="19CoJULS_3s1aGb-RFfC-266" value="" style="rounded=0;whiteSpace=wrap;html=1;" parent="1" vertex="1">
          <mxGeometry x="443.13" y="1470" width="43.75" height="20" as="geometry" />
        </mxCell>
        <mxCell id="19CoJULS_3s1aGb-RFfC-267" value="" style="rounded=0;whiteSpace=wrap;html=1;" parent="1" vertex="1">
          <mxGeometry x="358.12" y="1470" width="43.75" height="20" as="geometry" />
        </mxCell>
        <mxCell id="19CoJULS_3s1aGb-RFfC-268" value="" style="rounded=0;whiteSpace=wrap;html=1;" parent="1" vertex="1">
          <mxGeometry x="205" y="1470" width="43.75" height="20" as="geometry" />
        </mxCell>
        <mxCell id="19CoJULS_3s1aGb-RFfC-269" value="" style="rounded=0;whiteSpace=wrap;html=1;" parent="1" vertex="1">
          <mxGeometry x="120" y="1470" width="43.75" height="20" as="geometry" />
        </mxCell>
        <mxCell id="19CoJULS_3s1aGb-RFfC-270" value="&lt;font style=&quot;font-size: 18px;&quot;&gt;3个block&lt;/font&gt;" style="rounded=0;whiteSpace=wrap;html=1;" parent="1" vertex="1">
          <mxGeometry x="70" y="1400" width="470" height="50" as="geometry" />
        </mxCell>
        <mxCell id="19CoJULS_3s1aGb-RFfC-271" value="&lt;font style=&quot;font-size: 14px;&quot;&gt;128&lt;/font&gt;" style="text;html=1;strokeColor=none;fillColor=none;align=center;verticalAlign=middle;whiteSpace=wrap;rounded=0;" parent="1" vertex="1">
          <mxGeometry y="1264" width="85" height="40" as="geometry" />
        </mxCell>
        <mxCell id="19CoJULS_3s1aGb-RFfC-272" value="&lt;font style=&quot;font-size: 14px;&quot;&gt;256&lt;/font&gt;" style="text;html=1;strokeColor=none;fillColor=none;align=center;verticalAlign=middle;whiteSpace=wrap;rounded=0;" parent="1" vertex="1">
          <mxGeometry y="1360" width="85" height="40" as="geometry" />
        </mxCell>
        <mxCell id="19CoJULS_3s1aGb-RFfC-273" value="&lt;font style=&quot;font-size: 14px;&quot;&gt;512&lt;/font&gt;" style="text;html=1;strokeColor=none;fillColor=none;align=center;verticalAlign=middle;whiteSpace=wrap;rounded=0;" parent="1" vertex="1">
          <mxGeometry y="1460" width="85" height="40" as="geometry" />
        </mxCell>
        <mxCell id="19CoJULS_3s1aGb-RFfC-275" value="" style="endArrow=classic;html=1;rounded=0;shape=flexArrow;width=137.14285714285714;endSize=11.557142857142857;" parent="1" edge="1">
          <mxGeometry width="50" height="50" relative="1" as="geometry">
            <mxPoint x="299.29" y="1500" as="sourcePoint" />
            <mxPoint x="299.29" y="1560" as="targetPoint" />
          </mxGeometry>
        </mxCell>
        <mxCell id="19CoJULS_3s1aGb-RFfC-296" value="&lt;font style=&quot;font-size: 18px;&quot;&gt;BiLSTM&lt;/font&gt;" style="text;html=1;strokeColor=none;fillColor=none;align=center;verticalAlign=middle;whiteSpace=wrap;rounded=0;" parent="1" vertex="1">
          <mxGeometry x="670" y="1580" width="60" height="30" as="geometry" />
        </mxCell>
        <mxCell id="19CoJULS_3s1aGb-RFfC-297" value="" style="endArrow=none;html=1;rounded=0;entryX=0.5;entryY=1;entryDx=0;entryDy=0;exitX=0.5;exitY=0;exitDx=0;exitDy=0;" parent="1" source="19CoJULS_3s1aGb-RFfC-190" target="19CoJULS_3s1aGb-RFfC-10" edge="1">
          <mxGeometry width="50" height="50" relative="1" as="geometry">
            <mxPoint x="230" y="650" as="sourcePoint" />
            <mxPoint x="230" y="610" as="targetPoint" />
          </mxGeometry>
        </mxCell>
        <mxCell id="19CoJULS_3s1aGb-RFfC-298" value="" style="endArrow=none;html=1;rounded=0;entryX=0.5;entryY=1;entryDx=0;entryDy=0;exitX=0.5;exitY=0;exitDx=0;exitDy=0;" parent="1" source="19CoJULS_3s1aGb-RFfC-191" target="19CoJULS_3s1aGb-RFfC-10" edge="1">
          <mxGeometry width="50" height="50" relative="1" as="geometry">
            <mxPoint x="310" y="570" as="sourcePoint" />
            <mxPoint x="310" y="530" as="targetPoint" />
          </mxGeometry>
        </mxCell>
        <mxCell id="19CoJULS_3s1aGb-RFfC-299" value="" style="endArrow=none;html=1;rounded=0;exitX=0.5;exitY=0;exitDx=0;exitDy=0;" parent="1" source="19CoJULS_3s1aGb-RFfC-189" edge="1">
          <mxGeometry width="50" height="50" relative="1" as="geometry">
            <mxPoint x="310" y="570" as="sourcePoint" />
            <mxPoint x="300" y="520" as="targetPoint" />
          </mxGeometry>
        </mxCell>
        <mxCell id="_zy6mxmBzzGPkQvw4hf9-4" style="edgeStyle=orthogonalEdgeStyle;rounded=0;orthogonalLoop=1;jettySize=auto;html=1;exitX=1;exitY=0.5;exitDx=0;exitDy=0;entryX=0;entryY=0.5;entryDx=0;entryDy=0;" edge="1" parent="1" source="l-8kPbux9toLiWY5zRJP-2" target="19CoJULS_3s1aGb-RFfC-207">
          <mxGeometry relative="1" as="geometry" />
        </mxCell>
        <mxCell id="l-8kPbux9toLiWY5zRJP-2" value="" style="swimlane;startSize=0;" parent="1" vertex="1">
          <mxGeometry x="-20" y="700" width="270" height="360" as="geometry">
            <mxRectangle x="-20" y="700" width="50" height="40" as="alternateBounds" />
          </mxGeometry>
        </mxCell>
        <mxCell id="l-8kPbux9toLiWY5zRJP-3" style="edgeStyle=orthogonalEdgeStyle;rounded=0;orthogonalLoop=1;jettySize=auto;html=1;exitX=0.5;exitY=1;exitDx=0;exitDy=0;entryX=0.5;entryY=0;entryDx=0;entryDy=0;" parent="l-8kPbux9toLiWY5zRJP-2" source="l-8kPbux9toLiWY5zRJP-5" target="l-8kPbux9toLiWY5zRJP-7" edge="1">
          <mxGeometry relative="1" as="geometry" />
        </mxCell>
        <mxCell id="l-8kPbux9toLiWY5zRJP-29" style="edgeStyle=orthogonalEdgeStyle;rounded=0;orthogonalLoop=1;jettySize=auto;html=1;entryX=0.5;entryY=0;entryDx=0;entryDy=0;" parent="l-8kPbux9toLiWY5zRJP-2" target="l-8kPbux9toLiWY5zRJP-25" edge="1">
          <mxGeometry relative="1" as="geometry">
            <mxPoint x="75" y="40" as="sourcePoint" />
          </mxGeometry>
        </mxCell>
        <mxCell id="l-8kPbux9toLiWY5zRJP-5" value="&lt;font style=&quot;font-size: 14px;&quot;&gt;conv1&lt;/font&gt;" style="rounded=0;whiteSpace=wrap;html=1;" parent="l-8kPbux9toLiWY5zRJP-2" vertex="1">
          <mxGeometry x="21.25" y="55" width="107.5" height="30" as="geometry" />
        </mxCell>
        <mxCell id="l-8kPbux9toLiWY5zRJP-6" style="edgeStyle=orthogonalEdgeStyle;rounded=0;orthogonalLoop=1;jettySize=auto;html=1;exitX=0.5;exitY=1;exitDx=0;exitDy=0;entryX=0.5;entryY=0;entryDx=0;entryDy=0;" parent="l-8kPbux9toLiWY5zRJP-2" source="l-8kPbux9toLiWY5zRJP-7" target="l-8kPbux9toLiWY5zRJP-9" edge="1">
          <mxGeometry relative="1" as="geometry" />
        </mxCell>
        <mxCell id="l-8kPbux9toLiWY5zRJP-7" value="&lt;span style=&quot;font-size: 14px;&quot;&gt;bn1&lt;/span&gt;" style="rounded=0;whiteSpace=wrap;html=1;" parent="l-8kPbux9toLiWY5zRJP-2" vertex="1">
          <mxGeometry x="21.25" y="105" width="107.5" height="30" as="geometry" />
        </mxCell>
        <mxCell id="l-8kPbux9toLiWY5zRJP-8" style="edgeStyle=orthogonalEdgeStyle;rounded=0;orthogonalLoop=1;jettySize=auto;html=1;exitX=0.5;exitY=1;exitDx=0;exitDy=0;entryX=0.5;entryY=0;entryDx=0;entryDy=0;" parent="l-8kPbux9toLiWY5zRJP-2" source="l-8kPbux9toLiWY5zRJP-9" target="l-8kPbux9toLiWY5zRJP-11" edge="1">
          <mxGeometry relative="1" as="geometry" />
        </mxCell>
        <mxCell id="l-8kPbux9toLiWY5zRJP-9" value="&lt;span style=&quot;font-size: 14px;&quot;&gt;relu&lt;/span&gt;" style="rounded=0;whiteSpace=wrap;html=1;" parent="l-8kPbux9toLiWY5zRJP-2" vertex="1">
          <mxGeometry x="21.25" y="155" width="107.5" height="30" as="geometry" />
        </mxCell>
        <mxCell id="l-8kPbux9toLiWY5zRJP-10" style="edgeStyle=orthogonalEdgeStyle;rounded=0;orthogonalLoop=1;jettySize=auto;html=1;exitX=0.5;exitY=1;exitDx=0;exitDy=0;entryX=0.5;entryY=0;entryDx=0;entryDy=0;" parent="l-8kPbux9toLiWY5zRJP-2" source="l-8kPbux9toLiWY5zRJP-11" target="l-8kPbux9toLiWY5zRJP-13" edge="1">
          <mxGeometry relative="1" as="geometry" />
        </mxCell>
        <mxCell id="l-8kPbux9toLiWY5zRJP-11" value="&lt;span style=&quot;font-size: 14px;&quot;&gt;conv2&lt;/span&gt;" style="rounded=0;whiteSpace=wrap;html=1;" parent="l-8kPbux9toLiWY5zRJP-2" vertex="1">
          <mxGeometry x="21.25" y="205" width="107.5" height="30" as="geometry" />
        </mxCell>
        <mxCell id="l-8kPbux9toLiWY5zRJP-12" style="edgeStyle=orthogonalEdgeStyle;rounded=0;orthogonalLoop=1;jettySize=auto;html=1;exitX=0.5;exitY=1;exitDx=0;exitDy=0;" parent="l-8kPbux9toLiWY5zRJP-2" source="l-8kPbux9toLiWY5zRJP-13" edge="1">
          <mxGeometry relative="1" as="geometry">
            <mxPoint x="75" y="305" as="targetPoint" />
          </mxGeometry>
        </mxCell>
        <mxCell id="l-8kPbux9toLiWY5zRJP-13" value="&lt;span style=&quot;font-size: 14px;&quot;&gt;bn2&lt;/span&gt;" style="rounded=0;whiteSpace=wrap;html=1;" parent="l-8kPbux9toLiWY5zRJP-2" vertex="1">
          <mxGeometry x="21.25" y="255" width="107.5" height="30" as="geometry" />
        </mxCell>
        <mxCell id="l-8kPbux9toLiWY5zRJP-14" style="edgeStyle=orthogonalEdgeStyle;rounded=0;orthogonalLoop=1;jettySize=auto;html=1;exitX=0.5;exitY=1;exitDx=0;exitDy=0;" parent="l-8kPbux9toLiWY5zRJP-2" source="l-8kPbux9toLiWY5zRJP-15" edge="1">
          <mxGeometry relative="1" as="geometry">
            <mxPoint x="74.75862068965523" y="325.1034482758621" as="targetPoint" />
          </mxGeometry>
        </mxCell>
        <mxCell id="l-8kPbux9toLiWY5zRJP-30" style="edgeStyle=orthogonalEdgeStyle;rounded=0;orthogonalLoop=1;jettySize=auto;html=1;exitX=0.5;exitY=1;exitDx=0;exitDy=0;" parent="l-8kPbux9toLiWY5zRJP-2" source="l-8kPbux9toLiWY5zRJP-15" edge="1">
          <mxGeometry relative="1" as="geometry">
            <mxPoint x="75" y="345" as="targetPoint" />
          </mxGeometry>
        </mxCell>
        <mxCell id="l-8kPbux9toLiWY5zRJP-15" value="" style="ellipse;whiteSpace=wrap;html=1;aspect=fixed;" parent="l-8kPbux9toLiWY5zRJP-2" vertex="1">
          <mxGeometry x="65" y="305" width="20" height="20" as="geometry" />
        </mxCell>
        <mxCell id="l-8kPbux9toLiWY5zRJP-16" value="" style="endArrow=none;html=1;rounded=0;entryX=1;entryY=0.5;entryDx=0;entryDy=0;exitX=0;exitY=0.5;exitDx=0;exitDy=0;" parent="l-8kPbux9toLiWY5zRJP-2" source="l-8kPbux9toLiWY5zRJP-15" target="l-8kPbux9toLiWY5zRJP-15" edge="1">
          <mxGeometry width="50" height="50" relative="1" as="geometry">
            <mxPoint x="150" y="245" as="sourcePoint" />
            <mxPoint x="200" y="195" as="targetPoint" />
          </mxGeometry>
        </mxCell>
        <mxCell id="l-8kPbux9toLiWY5zRJP-17" value="" style="endArrow=none;html=1;rounded=0;entryX=0.5;entryY=1;entryDx=0;entryDy=0;exitX=0.5;exitY=0;exitDx=0;exitDy=0;" parent="l-8kPbux9toLiWY5zRJP-2" source="l-8kPbux9toLiWY5zRJP-15" target="l-8kPbux9toLiWY5zRJP-15" edge="1">
          <mxGeometry width="50" height="50" relative="1" as="geometry">
            <mxPoint x="150" y="245" as="sourcePoint" />
            <mxPoint x="200" y="195" as="targetPoint" />
          </mxGeometry>
        </mxCell>
        <mxCell id="l-8kPbux9toLiWY5zRJP-18" style="edgeStyle=orthogonalEdgeStyle;rounded=0;orthogonalLoop=1;jettySize=auto;html=1;exitX=0.5;exitY=1;exitDx=0;exitDy=0;entryX=0.5;entryY=0;entryDx=0;entryDy=0;" parent="l-8kPbux9toLiWY5zRJP-2" source="l-8kPbux9toLiWY5zRJP-19" target="l-8kPbux9toLiWY5zRJP-5" edge="1">
          <mxGeometry relative="1" as="geometry" />
        </mxCell>
        <mxCell id="l-8kPbux9toLiWY5zRJP-19" value="&lt;font style=&quot;font-size: 14px;&quot;&gt;x&lt;/font&gt;" style="text;html=1;strokeColor=none;fillColor=none;align=center;verticalAlign=middle;whiteSpace=wrap;rounded=0;" parent="l-8kPbux9toLiWY5zRJP-2" vertex="1">
          <mxGeometry x="45" width="60" height="30" as="geometry" />
        </mxCell>
        <mxCell id="l-8kPbux9toLiWY5zRJP-20" value="&lt;font style=&quot;font-size: 14px;&quot;&gt;relu&lt;/font&gt;" style="text;html=1;strokeColor=none;fillColor=none;align=center;verticalAlign=middle;whiteSpace=wrap;rounded=0;" parent="l-8kPbux9toLiWY5zRJP-2" vertex="1">
          <mxGeometry x="80" y="330" width="60" height="30" as="geometry" />
        </mxCell>
        <mxCell id="l-8kPbux9toLiWY5zRJP-24" style="edgeStyle=orthogonalEdgeStyle;rounded=0;orthogonalLoop=1;jettySize=auto;html=1;exitX=0.5;exitY=1;exitDx=0;exitDy=0;entryX=1;entryY=0.5;entryDx=0;entryDy=0;" parent="l-8kPbux9toLiWY5zRJP-2" source="l-8kPbux9toLiWY5zRJP-25" target="l-8kPbux9toLiWY5zRJP-15" edge="1">
          <mxGeometry relative="1" as="geometry" />
        </mxCell>
        <mxCell id="l-8kPbux9toLiWY5zRJP-25" value="&lt;span style=&quot;font-size: 14px;&quot;&gt;x=downsample(x)&lt;/span&gt;" style="rounded=0;whiteSpace=wrap;html=1;" parent="l-8kPbux9toLiWY5zRJP-2" vertex="1">
          <mxGeometry x="140" y="160" width="118.75" height="25" as="geometry" />
        </mxCell>
        <mxCell id="_zy6mxmBzzGPkQvw4hf9-1" value="&lt;span style=&quot;font-size: 18px;&quot;&gt;layer2&lt;/span&gt;" style="text;html=1;strokeColor=none;fillColor=none;align=center;verticalAlign=middle;whiteSpace=wrap;rounded=0;" vertex="1" parent="1">
          <mxGeometry x="660" y="1115" width="80" height="40" as="geometry" />
        </mxCell>
        <mxCell id="_zy6mxmBzzGPkQvw4hf9-7" value="&lt;span style=&quot;font-size: 18px;&quot;&gt;layer3&lt;/span&gt;" style="text;html=1;strokeColor=none;fillColor=none;align=center;verticalAlign=middle;whiteSpace=wrap;rounded=0;" vertex="1" parent="1">
          <mxGeometry x="660" y="1219" width="80" height="40" as="geometry" />
        </mxCell>
        <mxCell id="_zy6mxmBzzGPkQvw4hf9-8" value="" style="swimlane;startSize=0;" vertex="1" parent="1">
          <mxGeometry x="-45" y="690" width="705" height="380" as="geometry" />
        </mxCell>
        <mxCell id="_zy6mxmBzzGPkQvw4hf9-13" value="&lt;span style=&quot;font-size: 14px;&quot;&gt;resnet_block&lt;/span&gt;" style="text;html=1;strokeColor=none;fillColor=none;align=center;verticalAlign=middle;whiteSpace=wrap;rounded=0;" vertex="1" parent="_zy6mxmBzzGPkQvw4hf9-8">
          <mxGeometry x="200" y="10" width="85" height="40" as="geometry" />
        </mxCell>
        <mxCell id="_zy6mxmBzzGPkQvw4hf9-10" value="&lt;span style=&quot;font-size: 18px;&quot;&gt;layer4&lt;/span&gt;" style="text;html=1;strokeColor=none;fillColor=none;align=center;verticalAlign=middle;whiteSpace=wrap;rounded=0;" vertex="1" parent="1">
          <mxGeometry x="660" y="1315" width="80" height="40" as="geometry" />
        </mxCell>
        <mxCell id="_zy6mxmBzzGPkQvw4hf9-11" value="&lt;span style=&quot;font-size: 18px;&quot;&gt;layer5&lt;/span&gt;" style="text;html=1;strokeColor=none;fillColor=none;align=center;verticalAlign=middle;whiteSpace=wrap;rounded=0;" vertex="1" parent="1">
          <mxGeometry x="660" y="1410" width="80" height="40" as="geometry" />
        </mxCell>
        <mxCell id="_zy6mxmBzzGPkQvw4hf9-12" value="" style="group" vertex="1" connectable="0" parent="1">
          <mxGeometry x="60" y="1560" width="490" height="80" as="geometry" />
        </mxCell>
        <mxCell id="19CoJULS_3s1aGb-RFfC-276" value="" style="rounded=0;whiteSpace=wrap;html=1;" parent="_zy6mxmBzzGPkQvw4hf9-12" vertex="1">
          <mxGeometry width="40" height="80" as="geometry" />
        </mxCell>
        <mxCell id="19CoJULS_3s1aGb-RFfC-295" style="edgeStyle=orthogonalEdgeStyle;rounded=0;orthogonalLoop=1;jettySize=auto;html=1;exitX=0;exitY=0.75;exitDx=0;exitDy=0;entryX=1;entryY=0.75;entryDx=0;entryDy=0;" parent="_zy6mxmBzzGPkQvw4hf9-12" source="19CoJULS_3s1aGb-RFfC-277" target="19CoJULS_3s1aGb-RFfC-276" edge="1">
          <mxGeometry relative="1" as="geometry" />
        </mxCell>
        <mxCell id="19CoJULS_3s1aGb-RFfC-277" value="" style="rounded=0;whiteSpace=wrap;html=1;" parent="_zy6mxmBzzGPkQvw4hf9-12" vertex="1">
          <mxGeometry x="80" width="40" height="80" as="geometry" />
        </mxCell>
        <mxCell id="19CoJULS_3s1aGb-RFfC-286" style="edgeStyle=orthogonalEdgeStyle;rounded=0;orthogonalLoop=1;jettySize=auto;html=1;exitX=1;exitY=0.25;exitDx=0;exitDy=0;entryX=0;entryY=0.25;entryDx=0;entryDy=0;" parent="_zy6mxmBzzGPkQvw4hf9-12" source="19CoJULS_3s1aGb-RFfC-276" target="19CoJULS_3s1aGb-RFfC-277" edge="1">
          <mxGeometry relative="1" as="geometry" />
        </mxCell>
        <mxCell id="19CoJULS_3s1aGb-RFfC-294" style="edgeStyle=orthogonalEdgeStyle;rounded=0;orthogonalLoop=1;jettySize=auto;html=1;exitX=0;exitY=0.75;exitDx=0;exitDy=0;entryX=1;entryY=0.75;entryDx=0;entryDy=0;" parent="_zy6mxmBzzGPkQvw4hf9-12" source="19CoJULS_3s1aGb-RFfC-278" target="19CoJULS_3s1aGb-RFfC-277" edge="1">
          <mxGeometry relative="1" as="geometry" />
        </mxCell>
        <mxCell id="19CoJULS_3s1aGb-RFfC-278" value="" style="rounded=0;whiteSpace=wrap;html=1;" parent="_zy6mxmBzzGPkQvw4hf9-12" vertex="1">
          <mxGeometry x="160" width="40" height="80" as="geometry" />
        </mxCell>
        <mxCell id="19CoJULS_3s1aGb-RFfC-287" style="edgeStyle=orthogonalEdgeStyle;rounded=0;orthogonalLoop=1;jettySize=auto;html=1;exitX=1;exitY=0.25;exitDx=0;exitDy=0;entryX=0;entryY=0.25;entryDx=0;entryDy=0;" parent="_zy6mxmBzzGPkQvw4hf9-12" source="19CoJULS_3s1aGb-RFfC-277" target="19CoJULS_3s1aGb-RFfC-278" edge="1">
          <mxGeometry relative="1" as="geometry" />
        </mxCell>
        <mxCell id="19CoJULS_3s1aGb-RFfC-293" style="edgeStyle=orthogonalEdgeStyle;rounded=0;orthogonalLoop=1;jettySize=auto;html=1;exitX=0;exitY=0.75;exitDx=0;exitDy=0;entryX=1;entryY=0.75;entryDx=0;entryDy=0;" parent="_zy6mxmBzzGPkQvw4hf9-12" source="19CoJULS_3s1aGb-RFfC-279" target="19CoJULS_3s1aGb-RFfC-278" edge="1">
          <mxGeometry relative="1" as="geometry" />
        </mxCell>
        <mxCell id="19CoJULS_3s1aGb-RFfC-279" value="" style="rounded=0;whiteSpace=wrap;html=1;" parent="_zy6mxmBzzGPkQvw4hf9-12" vertex="1">
          <mxGeometry x="290" width="40" height="80" as="geometry" />
        </mxCell>
        <mxCell id="19CoJULS_3s1aGb-RFfC-288" style="edgeStyle=orthogonalEdgeStyle;rounded=0;orthogonalLoop=1;jettySize=auto;html=1;exitX=1;exitY=0.25;exitDx=0;exitDy=0;entryX=0;entryY=0.25;entryDx=0;entryDy=0;" parent="_zy6mxmBzzGPkQvw4hf9-12" source="19CoJULS_3s1aGb-RFfC-278" target="19CoJULS_3s1aGb-RFfC-279" edge="1">
          <mxGeometry relative="1" as="geometry" />
        </mxCell>
        <mxCell id="19CoJULS_3s1aGb-RFfC-292" style="edgeStyle=orthogonalEdgeStyle;rounded=0;orthogonalLoop=1;jettySize=auto;html=1;exitX=0;exitY=0.75;exitDx=0;exitDy=0;entryX=1;entryY=0.75;entryDx=0;entryDy=0;" parent="_zy6mxmBzzGPkQvw4hf9-12" source="19CoJULS_3s1aGb-RFfC-281" target="19CoJULS_3s1aGb-RFfC-279" edge="1">
          <mxGeometry relative="1" as="geometry" />
        </mxCell>
        <mxCell id="19CoJULS_3s1aGb-RFfC-281" value="" style="rounded=0;whiteSpace=wrap;html=1;" parent="_zy6mxmBzzGPkQvw4hf9-12" vertex="1">
          <mxGeometry x="370" width="40" height="80" as="geometry" />
        </mxCell>
        <mxCell id="19CoJULS_3s1aGb-RFfC-289" style="edgeStyle=orthogonalEdgeStyle;rounded=0;orthogonalLoop=1;jettySize=auto;html=1;exitX=1;exitY=0.25;exitDx=0;exitDy=0;entryX=0;entryY=0.25;entryDx=0;entryDy=0;" parent="_zy6mxmBzzGPkQvw4hf9-12" source="19CoJULS_3s1aGb-RFfC-279" target="19CoJULS_3s1aGb-RFfC-281" edge="1">
          <mxGeometry relative="1" as="geometry" />
        </mxCell>
        <mxCell id="19CoJULS_3s1aGb-RFfC-291" style="edgeStyle=orthogonalEdgeStyle;rounded=0;orthogonalLoop=1;jettySize=auto;html=1;exitX=0;exitY=0.75;exitDx=0;exitDy=0;entryX=1;entryY=0.75;entryDx=0;entryDy=0;" parent="_zy6mxmBzzGPkQvw4hf9-12" source="19CoJULS_3s1aGb-RFfC-282" target="19CoJULS_3s1aGb-RFfC-281" edge="1">
          <mxGeometry relative="1" as="geometry" />
        </mxCell>
        <mxCell id="19CoJULS_3s1aGb-RFfC-282" value="" style="rounded=0;whiteSpace=wrap;html=1;" parent="_zy6mxmBzzGPkQvw4hf9-12" vertex="1">
          <mxGeometry x="450" width="40" height="80" as="geometry" />
        </mxCell>
        <mxCell id="19CoJULS_3s1aGb-RFfC-290" style="edgeStyle=orthogonalEdgeStyle;rounded=0;orthogonalLoop=1;jettySize=auto;html=1;exitX=1;exitY=0.25;exitDx=0;exitDy=0;entryX=0;entryY=0.25;entryDx=0;entryDy=0;" parent="_zy6mxmBzzGPkQvw4hf9-12" source="19CoJULS_3s1aGb-RFfC-281" target="19CoJULS_3s1aGb-RFfC-282" edge="1">
          <mxGeometry relative="1" as="geometry" />
        </mxCell>
        <mxCell id="19CoJULS_3s1aGb-RFfC-284" value="&lt;font style=&quot;font-size: 24px;&quot;&gt;...&lt;/font&gt;" style="text;html=1;strokeColor=none;fillColor=none;align=center;verticalAlign=middle;whiteSpace=wrap;rounded=0;" parent="_zy6mxmBzzGPkQvw4hf9-12" vertex="1">
          <mxGeometry x="210" y="20" width="60" height="30" as="geometry" />
        </mxCell>
      </root>
    </mxGraphModel>
  </diagram>
</mxfile>
